/* XPM */
static char * pac_semi_right_xpm[] = {
"100 100 2 1",
" 	c None",
".	c #FFF100",
"                                                                                                    ",
"                                                                                                    ",
"                                                                                                    ",
"                                                                                                    ",
"                                                                                                    ",
"                                                                                                    ",
"                                                                                                    ",
"                                                                                                    ",
"                                                                                                    ",
"                                                                                                    ",
"                                                                                                    ",
"                                                                                                    ",
"                                        .......................                                     ",
"                                      ...........................                                   ",
"                                      ............................                                  ",
"                                     .............................                                  ",
"                                     .............................                                  ",
"                                     .............................                                  ",
"                                    ...............................                                 ",
"                             .................................................                      ",
"                            ..................................................                      ",
"                           ...................................................                      ",
"                          ....................................................                      ",
"                         .....................................................                      ",
"                        .......................................................                     ",
"                       .........................................................                    ",
"                      ...........................................................                   ",
"                      ...........................................................                   ",
"                      ...........................................................                   ",
"                      ...........................................................                   ",
"                      ...........................................................                   ",
"                      ...........................................................                   ",
"                      ...........................................................                   ",
"                     ............................................................                   ",
"                 .........................................................                          ",
"                ........................................................                            ",
"                ........................................................                            ",
"                ........................................................                            ",
"                ........................................................                            ",
"                ........................................................                            ",
"                .......................................................                             ",
"                .....................................................                               ",
"                .....................................................                               ",
"                ...................................................                                 ",
"                .........................................                                           ",
"                ........................................                                            ",
"                ........................................                                            ",
"                ........................................                                            ",
"                ........................................                                            ",
"                .......................................                                             ",
"                ......................                                                              ",
"                ......................                                                              ",
"                ......................                                                              ",
"                .......................................                                             ",
"                ........................................                                            ",
"                ........................................                                            ",
"                ........................................                                            ",
"                ........................................                                            ",
"                .........................................                                           ",
"                ......................................................                              ",
"                ........................................................                            ",
"                ........................................................                            ",
"                ........................................................                            ",
"                ........................................................                            ",
"                ........................................................                            ",
"                 .........................................................                          ",
"                     ............................................................                   ",
"                      ...........................................................                   ",
"                      ...........................................................                   ",
"                      ...........................................................                   ",
"                      ...........................................................                   ",
"                      ...........................................................                   ",
"                      ...........................................................                   ",
"                      ...........................................................                   ",
"                       .........................................................                    ",
"                        .......................................................                     ",
"                         .....................................................                      ",
"                         .....................................................                      ",
"                         .....................................................                      ",
"                         .....................................................                      ",
"                          ....................................................                      ",
"                                    ...............................                                 ",
"                                     .............................                                  ",
"                                     .............................                                  ",
"                                     .............................                                  ",
"                                      ............................                                  ",
"                                      ...........................                                   ",
"                                        .......................                                     ",
"                                                                                                    ",
"                                                                                                    ",
"                                                                                                    ",
"                                                                                                    ",
"                                                                                                    ",
"                                                                                                    ",
"                                                                                                    ",
"                                                                                                    ",
"                                                                                                    ",
"                                                                                                    ",
"                                                                                                    ",
"                                                                                                    "};
