/* XPM */
static char * pac_closed_xpm[] = {
"100 100 2 1",
" 	c None",
".	c #FFF100",
"                                                                                                    ",
"                                                                                                    ",
"                                                                                                    ",
"                                                                                                    ",
"                                                                                                    ",
"                                                                                                    ",
"                                                                                                    ",
"                                                                                                    ",
"                                                                                                    ",
"                                                                                                    ",
"                                                                                                    ",
"                                                                                                    ",
"                                     ..........................                                     ",
"                                   ..............................                                   ",
"                                  ................................                                  ",
"                                  ................................                                  ",
"                                  ................................                                  ",
"                                  ................................                                  ",
"                                 ..................................                                 ",
"                          ................................................                          ",
"                         ..................................................                         ",
"                         ..................................................                         ",
"                         ..................................................                         ",
"                         ..................................................                         ",
"                        ....................................................                        ",
"                    ............................................................                    ",
"                   ..............................................................                   ",
"                   ..............................................................                   ",
"                   ..............................................................                   ",
"                   ..............................................................                   ",
"                   ..............................................................                   ",
"                   ..............................................................                   ",
"                   ..............................................................                   ",
"                  ................................................................                  ",
"              ........................................................................              ",
"             ..........................................................................             ",
"             ..........................................................................             ",
"            ............................................................................            ",
"            ............................................................................            ",
"            ............................................................................            ",
"            ............................................................................            ",
"            ............................................................................            ",
"            ............................................................................            ",
"            ............................................................................            ",
"            ............................................................................            ",
"            ............................................................................            ",
"            ............................................................................            ",
"            ............................................................................            ",
"            ............................................................................            ",
"            ............................................................................            ",
"            ............................................................................            ",
"            ............................................................................            ",
"            ............................................................................            ",
"            ............................................................................            ",
"            ............................................................................            ",
"            ............................................................................            ",
"            ............................................................................            ",
"            ............................................................................            ",
"            ............................................................................            ",
"            ............................................................................            ",
"            ............................................................................            ",
"            ............................................................................            ",
"            ............................................................................            ",
"             ..........................................................................             ",
"             ..........................................................................             ",
"              ........................................................................              ",
"                  ................................................................                  ",
"                   ..............................................................                   ",
"                   ..............................................................                   ",
"                   ..............................................................                   ",
"                   ..............................................................                   ",
"                   ..............................................................                   ",
"                   ..............................................................                   ",
"                   ..............................................................                   ",
"                    ............................................................                    ",
"                        ....................................................                        ",
"                         ..................................................                         ",
"                         ..................................................                         ",
"                         ..................................................                         ",
"                         ..................................................                         ",
"                          ................................................                          ",
"                                 ..................................                                 ",
"                                  ................................                                  ",
"                                  ................................                                  ",
"                                  ................................                                  ",
"                                  ................................                                  ",
"                                   ..............................                                   ",
"                                     ..........................                                     ",
"                                                                                                    ",
"                                                                                                    ",
"                                                                                                    ",
"                                                                                                    ",
"                                                                                                    ",
"                                                                                                    ",
"                                                                                                    ",
"                                                                                                    ",
"                                                                                                    ",
"                                                                                                    ",
"                                                                                                    ",
"                                                                                                    "};
