/* XPM */
static char * sp4_xpm[] = {
"100 100 17 1",
" 	c None",
".	c #0A0A0A",
"+	c #312B28",
"@	c #423D39",
"#	c #55524C",
"$	c #221B1A",
"%	c #100E10",
"&	c #130F0F",
"*	c #161011",
"=	c #000000",
"-	c #413736",
";	c #757A7B",
">	c #E5F9FF",
",	c #FFDABC",
"'	c #BCCCDC",
")	c #8C3B4E",
"!	c #87959C",
"      ................      .............      ......................   ......................      ",
"      ................      .............      ......................   ......................      ",
"      ................      .............      ......................   ......................      ",
"   ...+++@@@##########......+++##########......+++@@@################...+++######@@@@@@#######...   ",
"   ...+++@@@##########......+++##########......+++@@@################...+++######@@@@@@#######...   ",
"   ...+++@@@##########......+++##########......+++@@@################...+++######@@@@@@#######...   ",
"...+++@@@##########@@@+++@@@#########@@@@@@@+++@@@######@@@@@@####@@@@@@@@@@@@@@@@@@#######@@@@@@...",
"...+++@@@##########@@@+++@@@#########@@@@@@@+++@@@######@@@@@@####@@@@@@@@@@@@@@@@@@#######@@@@@@...",
"...+++@@@##########@@@+++@@@#########@@@@@@@+++@@@######@@@@@@####@@@@@@@@@@@@@@@@@@#######@@@@@@...",
"...$$$+++@@@#######$$$$$$+++@@@######++++++++++@@@@@@###$$$+++@@@@++++++++++++$$$+++@@@####++++++...",
"...$$$+++@@@#######$$$$$$+++@@@######++++++++++@@@@@@###$$$+++@@@@++++++++++++$$$+++@@@####++++++...",
"...$$$+++@@@#######$$$$$$+++@@@######++++++++++@@@@@@###$$$+++@@@@++++++++++++$$$+++@@@####++++++...",
"...$$$+++@@@####@@@$$$$$$$$$+++@@@@@@$$$$%%%$$$+++@@@@@@$$$$$$++++$$$$$$%%%%%%%%%$$$+++@@@@$$$...   ",
"...$$$+++@@@####@@@$$$$$$$$$+++@@@@@@$$$$%%%$$$+++@@@@@@$$$$$$++++$$$$$$%%%%%%%%%$$$+++@@@@$$$...   ",
"...$$$+++@@@####@@@$$$$$$$$$+++@@@@@@$$$$%%%$$$+++@@@@@@$$$$$$++++$$$$$$%%%%%%%%%$$$+++@@@@$$$...   ",
"...$$$+++@@@####@@@$$$$$$$$$+++@@@@@@$$$$%%%$$$+++@@@@@@$$$$$$++++$$$$$$%%%%%%%%%$$$+++@@@@$$$...   ",
"   ...%%%+++@@@@+++%%%%%%$$$+++@@@+++%%%%%%%%%%$$$++++++$$$%%%%%%%&&&&&&&&&&&&%%%%%%$$$$$$$***...   ",
"   ...%%%+++@@@@+++%%%%%%$$$+++@@@+++%%%%%%%%%%$$$++++++$$$%%%%%%%&&&&&&&&&&&&%%%%%%$$$$$$$***...   ",
"   ...%%%+++@@@@+++%%%%%%$$$+++@@@+++%%%%%%%%%%$$$++++++$$$%%%%%%%&&&&&&&&&&&&%%%%%%$$$$$$$***...   ",
"   ...%%%$$$++++%%%&&&%%%%%%$$$+++%%%*******%%%%%%$$$$$$%%%***&&&&+++++++++&&&&&&%%%%%%+++++++...   ",
"   ...%%%$$$++++%%%&&&%%%%%%$$$+++%%%*******%%%%%%$$$$$$%%%***&&&&+++++++++&&&&&&%%%%%%+++++++...   ",
"   ...%%%$$$++++%%%&&&%%%%%%$$$+++%%%*******%%%%%%$$$$$$%%%***&&&&+++++++++&&&&&&%%%%%%+++++++...   ",
"   ...%%%%%%%%%%******&&&%%%%%%%%%**********&&&++++++******&&&$$$$$$$+++++++++***&&&$$$++++++++++...",
"   ...%%%%%%%%%%******&&&%%%%%%%%%**********&&&++++++******&&&$$$$$$$+++++++++***&&&$$$++++++++++...",
"   ...%%%%%%%%%%******&&&%%%%%%%%%**********&&&++++++******&&&$$$$$$$+++++++++***&&&$$$++++++++++...",
"   ...&&&&&&&&&&***%%%$$$&&&&&&***$$$****&&&$$$+++=====+&&&$$$$$$$$$$+++------&&=====$$++++------...",
"   ...&&&&&&&&&&***%%%$$$&&&&&&***$$$****&&&$$$+++=====+&&&$$$$$$$$$$+++------&&=====$$++++------...",
"   ...&&&&&&&&&&***%%%$$$&&&&&&***$$$****&&&$$$+++=====+&&&$$$$$$$$$$+++------&&=====$$++++------...",
"...&&&&&&$$$+++++++***%%%+++&&&&&&***&&&&$$$$$$+++=====-&&&$$$$$$$+++------***%%=====++-------***...",
"...&&&&&&$$$+++++++***%%%+++&&&&&&***&&&&$$$$$$+++=====-&&&$$$$$$$+++------***%%=====++-------***...",
"...&&&&&&$$$+++++++***%%%+++&&&&&&***&&&&$$$$=====;;;;;=====$$$$$$+++------=====>>>>>=====----***...",
"...&&&%%%$$$$$$$++++++***&&&+++++++++%%%%&&&+=====;;;;;=====&&++++------***=====>>>>>=====*******...",
"...&&&%%%$$$$$$$++++++***&&&+++++++++%%%%&&&+=====;;;;;=====&&++++------***=====>>>>>=====*******...",
"...&&&%%%$$$$$$$++++++***&&&+++++++++%%%%&&&+=====;;;;;=====&&++++------***=====>>>>>=====*******...",
"   ...&&&%%%++++------&&&$$$$$$++++++****%%%-=====;;;;;=====%%&&&&******&&&=====>>>>>=====****...   ",
"   ...&&&%%%++++------&&&$$$$$$++++++***=====;;;;;,,,,,;;;;;===============>>>>>,,,,,=====****...   ",
"   ...&&&%%%++++------&&&$$$$$$++++++***=====;;;;;,,,,,;;;;;===============>>>>>,,,,,=====****...   ",
"      ...&&&%%%%---***&&&$$$+++------&&&=====;;;;;,,,,,;;;;;===============>>>>>,,,,,=====+***...   ",
"      ...&&&%%%%---***&&&$$$+++------&&&=====;;;;;,,,,,;;;;;===============>>>>>,,,,,=====+***...   ",
"      ...&&&%%%%---***&&&$$$+++------&&&=====;;;;;,,,,,;;;;;===============>>>>>,,,,,=====+***...   ",
"      ...&&&%%%%---***&&&$$$+++------&&&=====;;;;;;;;;;;;;;;>>>>>>>>>>;;;;;;;;;;;;;;;=====+***...   ",
"      ...&&&&&&&******%%%+++---------***=====;;;;;;;;;;;;;;;>>>>>>>>>>;;;;;;;;;;;;;;;=====++++***...",
"      ...&&&&&&&******%%%+++---------***=====;;;;;;;;;;;;;;;>>>>>>>>>>;;;;;;;;;;;;;;;=====++++***...",
"      ...&&&&&&&******%%%+++---------***=====;;;;;;;;;;;;;;;>>>>>>>>>>;;;;;;;;;;;;;;;=====++++***...",
"   ...&&&++++++++++***&&&%%%------******=====;;;;;;;;;;;;;;;>>>>>>>>>>;;;;;;;;;;;;;;;=====++++***...",
"   ...&&&++++++++++***&&&%%%------******=====;;;;;;;;;;>>>>>>>>>>>>>>>;;;;;;;;;;;;;;;=====++++***...",
"   ...&&&++++++++++***&&&%%%------******=====;;;;;;;;;;>>>>>>>>>>>>>>>;;;;;;;;;;;;;;;=====++++***...",
"   ...$$$+++++++++++++******&&&&&&***&&&=====;;;;;;;;;;>>>>>>>>>>>>>>>;;;;;;;;;;;;;;;=====----***...",
"   ...$$$+++++++++++++******&&&&&&***&&&=====;;;;;;;;;;>>>>>>>>>>>>>>>;;;;;;;;;;;;;;;=====----***...",
"   ...$$$+++++++++++++******&&&&&&***&&&=====;;;;;;;;;;>>>>>>>>>>>>>>>;;;;;;;;;;;;;;;=====----***...",
"...$$$$$$$$$++++++++++***&&&++++++*=====>>>>>>>>>>>>>>>;;;;;;;;;;>>>>>>>>>>;;;;;;;;;;;;;;;=====..   ",
"...$$$$$$$$$++++++++++***&&&++++++*=====>>>>>>>>>>>>>>>;;;;;;;;;;>>>>>>>>>>;;;;;;;;;;;;;;;=====..   ",
"...$$$$$$$$$++++++++++***&&&++++++*=====>>>>>>>>>>>>>>>;;;;;;;;;;>>>>>>>>>>;;;;;;;;;;;;;;;=====..   ",
"...$$$$$$+++----------&&&$$$$$$++++=====>>>>>>>>>>>>>>>;;;;;;;;;;>>>>>>>>>>;;;;;;;;;;;;;;;=====     ",
"...$$$$$$+++----------&&&$$$$$$++++=====>>>>>>>>>>>>>>>;;;;;;;;;;>>>>>>>>>>;;;;;;;;;;;;;;;=====     ",
"...$$$$$$+++----------&&&$$$$$$++++=====>>>>>>>>>>;;;;;;;;;;;;;;;;;;;;>>>>>>>>>>;;;;;;;;;;=====     ",
"...%%%+++----------***%%%&&&+++----=====>>>>>>>>>>;;;;;;;;;;;;;;;;;;;;>>>>>>>>>>;;;;;;;;;;=====..   ",
"...%%%+++----------***%%%&&&+++----=====>>>>>>>>>>;;;;;;;;;;;;;;;;;;;;>>>>>>>>>>;;;;;;;;;;=====..   ",
"...%%%+++----------***%%%&&&+++----=====>>>>>>>>>>;;;;;;;;;;;;;;;;;;;;>>>>>>>>>>;;;;;;;;;;=====..   ",
"   ...%%%-------***$$$***%%%------*=====>>>>>>>>>>;;;;;;;;;;;;;;;;;;;;>>>>>>>>>>;;;;;;;;;;=====++...",
"   ...%%%-------***$$$***%%%--==========>>>>>>>>>>;;;;;;;;;;;;;;;;;;;;>>>>>>>>>>>>>>>>>>>>=====++...",
"   ...%%%-------***$$$***%%%--==========>>>>>>>>>>;;;;;;;;;;;;;;;;;;;;>>>>>>>>>>>>>>>>>>>>=====++...",
"   ...&&&&&&****&&&***********==========>>>>>>>>>>;;;;;;;;;;;;;;;;;;;;>>>>>>>>>>>>>>>>>>>>=====--...",
"   ...&&&&&&****&&&***********==========>>>>>>>>>>;;;;;;;;;;;;;;;;;;;;>>>>>>>>>>>>>>>>>>>>=====--...",
"   ...&&&&&&****&&&***********==========>>>>>>>>>>;;;;;;;;;;;;;;;;;;;;>>>>>>>>>>>>>>>>>>>>=====--...",
"   ..=========================>>>>>>>>>>'''''>>>>>>>>>>;;;;;;;;;;>>>>>)))))>>>>>>>>>>=====$+++---...",
"     =========================>>>>>>>>>>'''''>>>>>>>>>>;;;;;;;;;;>>>>>)))))>>>>>>>>>>=====+---***...",
"     =========================>>>>>>>>>>'''''>>>>>>>>>>;;;;;;;;;;>>>>>)))))>>>>>>>>>>=====+---***...",
"     =========================>>>>>>>>>>'''''>>>>>>>>>>;;;;;;;;;;>>>>>)))))>>>>>>>>>>=====+---***...",
"   ..=========================>>>>>>>>>>'''''>>>>>>>>>>;;;;;;;;;;>>>>>)))))>>>>>>>>>>=====****...   ",
"=====;;;;;>>>>>>>>>>''''''''''>>>>>>>>>>''''''''''>>>>>>>>>>>>>>>>>>>>>>>>>>>>>>=====&&*******...   ",
"=====;;;;;>>>>>>>>>>''''''''''>>>>>>>>>>''''''''''>>>>>>>>>>>>>>>>>>>>>>>>>>>>>>=====&&*******...   ",
"=====;;;;;>>>>>>>>>>''''''''''>>>>>>>>>>''''''''''>>>>>>>>>>>>>>>>>>>>>>>>>>>>>>=====++++++***...   ",
"=====;;;;;>>>>>>>>>>''''''''''>>>>>>>>>>''''''''''>>>>>>>>>>>>>>>>>>>>>>>>>>>>>>=====++++++***...   ",
"=====;;;;;>>>>>>>>>>''''''''''>>>>>>>>>>''''''''''>>>>>>>>>>>>>>>>>>>>>>>>>>>>>>=====++++++***...   ",
"...&&====================''''''''''>>>>>>>>>>''''''''''''''''''''''''''''''=====$+++++++++++++...   ",
"...&&====================''''''''''>>>>>>>>>>''''''''''''''''''''''''''''''=====$+++++++++++++...   ",
"...&&====================''''''''''>>>>>>>>>>''''''''''''''''''''''''''''''=====$+++++++++++++...   ",
"...$$====================''''''''''>>>>>>>>>>''''''''''''''''''''''''''''''=====$$$$$$$++++++++++...",
"...$$====================''''''''''>>>>>>>>>>''''''''''''''''''''''''''''''=====$$$$$$$++++++++++...",
"...$$$$$$$$$$$$$$$$++++++=====''''''''''''''''''''''''''''''''''''''''=====&&&$$$$$$$$$++++++++++...",
"...$$$$$$$$$$$$$+++------=====''''''''''''''''''''''''''''''''''''''''=====***%%%$$$$$$++++------...",
"...$$$$$$$$$$$$$+++------=====''''''''''''''''''''''''''''''''''''''''=====***%%%$$$$$$++++------...",
"...$$$$$$$$$$$$$+++------=====''''''''''''''''''''''''''''''''''''''''=====***%%%$$$$$$++++------...",
"...%%%$$$$$$++++---------=====''''''''''''''''''''''''''''''''''''''''=====***%%%$$$+++----------...",
"...%%%$$$$$$++++---------====='''''=====!!!!!=========='''''=====!!!!!=====***%%%$$$+++----------...",
"...%%%$$$$$$++++---------====='''''=====!!!!!=========='''''=====!!!!!=====***%%%$$$+++----------...",
"   ...$$$$$$++++---------====='''''=====!!!!!=========='''''=====!!!!!=====&&&&&&%%%-------------...",
"   ...$$$$$$++++---------====='''''=====!!!!!=========='''''=====!!!!!=====&&&&&&%%%-------------...",
"   ...$$$$$$++++---------====='''''=====!!!!!=========='''''=====!!!!!=====&&&&&&%%%-------------...",
"   ...$$$$$$++++---------====='''''=====!!!!!=========='''''=====!!!!!=====&&&&&&%%%-------------...",
"   ...%%%+++----------&&&====='''''=====!!!!!=========='''''=====!!!!!=====...&&&&&&***-------***...",
"   ...%%%+++----------&&&====='''''=====!!!!!=========='''''=====!!!!!=====...&&&&&&***-------***...",
"   ...%%%+++----------&&&====='''''=====!!!!!=========='''''=====!!!!!=====...&&&&&&***-------***...",
"      ...%%%-------&&&...====='''''=====!!!!!=========='''''=====!!!!!=====   ......&&&*******...   ",
"      ...%%%-------&&&........=====  ...=====&&...%%%++=====-----=====.....   ......&&&*******...   ",
"      ...%%%-------&&&........=====  ...=====&&...%%%++=====-----=====.....   ......&&&*******...   ",
"         .............        =====     =====..   .....=====.....=====              ..........      ",
"         .............        =====     =====..   .....=====.....=====              ..........      ",
"         .............        =====     =====..   .....=====.....=====              ..........      "};
