/* XPM */
static char * sp5_xpm[] = {
"100 100 18 1",
" 	c None",
".	c #0A0A0A",
"+	c #312B28",
"@	c #423D39",
"#	c #55524C",
"$	c #221B1A",
"%	c #100E10",
"&	c #130F0F",
"*	c #161011",
"=	c #000000",
"-	c #E5F9FF",
";	c #757A7B",
">	c #413736",
",	c #FFDABC",
"'	c #1E1E11",
")	c #8C3B4E",
"!	c #BCCCDC",
"~	c #87959C",
"      ................      .............      ......................   ......................      ",
"      ................      .............      ......................   ......................      ",
"      ................      .............      ......................   ......................      ",
"   ...+++@@@##########......+++##########......+++@@@################...+++######@@@@@@#######...   ",
"   ...+++@@@##########......+++##########......+++@@@################...+++######@@@@@@#######...   ",
"   ...+++@@@##########......+++##########......+++@@@################...+++######@@@@@@#######...   ",
"...+++@@@##########@@@+++@@@#########@@@@@@@+++@@@######@@@@@@####@@@@@@@@@@@@@@@@@@#######@@@@@@...",
"...+++@@@##########@@@+++@@@#########@@@@@@@+++@@@######@@@@@@####@@@@@@@@@@@@@@@@@@#######@@@@@@...",
"...+++@@@##########@@@+++@@@#########@@@@@@@+++@@@######@@@@@@####@@@@@@@@@@@@@@@@@@#######@@@@@@...",
"...$$$+++@@@#######$$$$$$+++@@@######++++++++++@@@@@@###$$$+++@@@@++++++++++++$$$+++@@@####++++++...",
"...$$$+++@@@#######$$$$$$+++@@@######++++++++++@@@@@@###$$$+++@@@@++++++++++++$$$+++@@@####++++++...",
"...$$$+++@@@#######$$$$$$+++@@@######++++++++++@@@@@@###$$$+++@@@@++++++++++++$$$+++@@@####++++++...",
"...$$$+++@@@####@@@$$$$$$$$$+++@@@@@@$$$$%%%$$$+++@@@@@@$$$$$$++++$$$$$$%%%%%%%%%$$$+++@@@@$$$...   ",
"...$$$+++@@@####@@@$$$$$$$$$+++@@@@@@$$$$%%%$$$+++@@@@@@$$$$$$++++$$$$$$%%%%%%%%%$$$+++@@@@$$$...   ",
"...$$$+++@@@####@@@$$$$$$$$$+++@@@@@@$$$$%%%$$$+++@@@@@@$$$$$$++++$$$$$$%%%%%%%%%$$$+++@@@@$$$...   ",
"...$$$+++@@@####@@@$$$$$$$$$+++@@@@@@$$$$%%%$$$+++@@@@@@$$$$$$++++$$$$$$%%%%%%%%%$$$+++@@@@$$$...   ",
"   ...%%%+++@@@@+++%%%%%%$$$+++@@@+++%%%%%%%%%%$$$++++++$$$%%%%%%%&&&&&&&&&&&&%%%%%%$$$$$$$***...   ",
"   ...%%%+++@@@@+++%%%%%%$$$+++@@@+++%%%%%%%%%%$$$++++++$$$%%%%%%%&&&&&&&&&&&&%%%%%%$$$$$$$***...   ",
"   ...%%%+++@@@@+++%%%%%%$$$+++@@@+++%%%%%%%%%%$$$++++++$$$%%%%%%%&&&&&&&&&&&&%%%%%%$$$$$$$***...   ",
"   ...%%%$$$++++%%%&&&%%%%%%$$$+++%%%*******%%%%%%$$$$$$%%%***&&&&+++++++++&&&&&&%%%%%%+++++++...   ",
"   ...%%%$$$+++=====&&%%%%%%$$$+++%%%*******%=====$$$$$$%%%***&&&&+++++++++&&&&&&%%%%%%+++++++...   ",
"   ...%%%$$$+++=====&&%%%%%%$$$+++%%%*******%=====$$$$$$%%%***&&&&+++++++++&&&&&&%%%%%%+++++++...   ",
"   ...%%%%%%%%%=====**&&&%%%%%%%%%**********&=====+++******&&&$$$$$$$+++++++++***&&&$$$++++++++++...",
"   ...%%%%%%%%%=====**&&&%%%%%%%%%**********&=====+++******&&&$$$$$$$+++++++++***&&&$$$++++++++++...",
"   ...%%%%%%%%%=====**&&&%%%%%%%%%**********&=====+++******&&&$$$$$$$+++++++++***&&&$$$++++++++++...",
"   ...&&&&=====-----=====&&&&&&***$$$***=====;;;;;=====+&&&$$$$$$$$$$+++>>>>>>&&&$$$$$$++++>>>>>>...",
"   ...&&&&=====-----=====&&&&&&***$$$***=====;;;;;=====+&&&$$$$$$$$$$+++>>>>>>&&&$$$$$$++++>>>>>>...",
"   ...&&&&=====-----=====&&&&&&***$$$***=====;;;;;=====+&&&$$$$$$$$$$+++>>>>>>&&&$$$$$$++++>>>>>>...",
"...&&&&&&$=====-----=====+++&&&&&&***&&&=====;;;;;=====>&&&$$$$$$$+++>>>>>>***%%%&&&+++>>>>>>>***...",
"...&&&&&&$=====-----=====+++&&&&&&***&&&=====;;;;;=====>&&&$$$$$$$+++>>>>>>***%%%&&&+++>>>>>>>***...",
"...&&&&&&$=====,,,,,-----===============;;;;;,,,,,;;;;;=====$$$$$$+++>>>>>>***%%%&&&+++>>>>>>>***...",
"...&&&%%%$=====,,,,,-----===============;;;;;,,,,,;;;;;=====&&++++>>>>>>***&&&&&&%%%&&&**********...",
"...&&&%%%$=====,,,,,-----===============;;;;;,,,,,;;;;;=====&&++++>>>>>>***&&&&&&%%%&&&**********...",
"...&&&%%%$=====,,,,,-----===============;;;;;,,,,,;;;;;=====&&++++>>>>>>***&&&&&&%%%&&&**********...",
"   ...&&&%=====,,,,,-----===============;;;;;,,,,,;;;;;=====%%&&&&******&&&++++++++++++*******...   ",
"   ...&&&%=====;;;;;;;;;;;;;;;----------;;;;;;;;;;;;;;;=====%%&&&&******&&&++++++++++++*******...   ",
"   ...&&&%=====;;;;;;;;;;;;;;;----------;;;;;;;;;;;;;;;=====%%&&&&******&&&++++++++++++*******...   ",
"      ...&=====;;;;;;;;;;;;;;;----------;;;;;;;;;;;;;;;=====++$$$$***&&&$$$++++++++++++++++***...   ",
"      ...&=====;;;;;;;;;;;;;;;----------;;;;;;;;;;;;;;;=====++$$$$***&&&$$$++++++++++++++++***...   ",
"      ...&=====;;;;;;;;;;;;;;;----------;;;;;;;;;;;;;;;=====++$$$$***&&&$$$++++++++++++++++***...   ",
"      ...&=====;;;;;;;;;;;;;;;---------------;;;;;;;;;;=====++$$$$***&&&$$$++++++++++++++++***...   ",
"      ...&=====;;;;;;;;;;;;;;;---------------;;;;;;;;;;=====++&&&&$$$&&&$$$$$$++++++++++++++++***...",
"      ...&=====;;;;;;;;;;;;;;;---------------;;;;;;;;;;=====++&&&&$$$&&&$$$$$$++++++++++++++++***...",
"      ...&=====;;;;;;;;;;;;;;;---------------;;;;;;;;;;=====++&&&&$$$&&&$$$$$$++++++++++++++++***...",
"   ...&&&+=====;;;;;;;;;;;;;;;---------------;;;;;;;;;;=====******&&&%%%$$$$$$$$$+++++++++++++***...",
"   ..=====;;;;;;;;;;;;;;;----------;;;;;;;;;;---------------=====*&&&%%%$$$=====$+++++++++++++***...",
"   ..=====;;;;;;;;;;;;;;;----------;;;;;;;;;;---------------=====*&&&%%%$$$=====$+++++++++++++***...",
"   ..=====;;;;;;;;;;;;;;;----------;;;;;;;;;;---------------=====++++***%%%=====+>>>>>>>>>>>>>***...",
"   ..=====;;;;;;;;;;;;;;;----------;;;;;;;;;;---------------=====++++***%%%=====+>>>>>>>>>>>>>***...",
"   ..=====;;;;;;;;;;;;;;;----------;;;;;;;;;;---------------=====++++***%%%=====+>>>>>>>>>>>>>***...",
"...$$=====;;;;;'''''----------;;;;;''''';;;;;;;;;;----------=====+>>>*=====;;;;;=====>>>>>>***...   ",
"...$$=====;;;;;'''''----------;;;;;''''';;;;;;;;;;----------=====+>>>*=====;;;;;=====>>>>>>***...   ",
"...$$=====;;;;;'''''----------;;;;;''''';;;;;;;;;;----------=====+>>>*=====;;;;;=====>>>>>>***...   ",
"...$$=====;;;;;'''''----------;;;;;''''';;;;;;;;;;----------=====>****=====;;;;;=====>>****...      ",
"...$$=====;;;;;'''''----------;;;;;''''';;;;;;;;;;----------=====>****=====;;;;;=====>>****...      ",
"...$$=====-----'''''----------;;;;;''''';;;;;;;;;;----------==========*****=====-----=====*...      ",
"...%%=====-----'''''----------;;;;;''''';;;;;;;;;;----------==========&&+++=====-----=====&&&&...   ",
"...%%=====-----'''''----------;;;;;''''';;;;;;;;;;----------==========&&+++=====-----=====&&&&...   ",
"...%%=====-----'''''----------;;;;;''''';;;;;;;;;;----------==========&&+++=====-----=====&&&&...   ",
"   ..=====-----'''''----------;;;;;''''';;;;;;;;;;----------==========+++++=====-----=====+++++++...",
"   ...%%%>=====----------)))))-----;;;;;;;;;;----------!!!!!----------==========-----=====+++++++...",
"   ...%%%>=====----------)))))-----;;;;;;;;;;----------!!!!!----------==========-----=====+++++++...",
"   ...&&&&=====----------)))))-----;;;;;;;;;;----------!!!!!----------==========-----=====$+++>>>...",
"   ...&&&&=====----------)))))-----;;;;;;;;;;----------!!!!!----------==========-----=====$+++>>>...",
"   ...&&&&=====----------)))))-----;;;;;;;;;;----------!!!!!----------==========-----=====$+++>>>...",
"   ...&&&&&&***=====------------------------------!!!!!!!!!!----------!!!!!!!!!!=====$$$$$$+++>>>...",
"      ...***&&&=====------------------------------!!!!!!!!!!----------!!!!!!!!!!=====%%++++>>>***...",
"      ...***&&&=====------------------------------!!!!!!!!!!----------!!!!!!!!!!=====%%++++>>>***...",
"      ...***&&&=====------------------------------!!!!!!!!!!----------!!!!!!!!!!=====%%++++>>>***...",
"   ...&&&&&&+++=====------------------------------!!!!!!!!!!----------!!!!!!!!!!=====&&*******...   ",
"   ...&&&&&&++++++++=====!!!!!!!!!!!!!!!!!!!!!!!!!!!!!!----------!!!!!!!!!!=====*&&&&&&*******...   ",
"   ...&&&&&&++++++++=====!!!!!!!!!!!!!!!!!!!!!!!!!!!!!!----------!!!!!!!!!!=====*&&&&&&*******...   ",
"   ...&&&$$$$$$$++++=====!!!!!!!!!!!!!!!!!!!!!!!!!!!!!!----------!!!!!!!!!!=====&++++++++++***...   ",
"   ...&&&$$$$$$$++++=====!!!!!!!!!!!!!!!!!!!!!!!!!!!!!!----------!!!!!!!!!!=====&++++++++++***...   ",
"   ...&&&$$$$$$$++++=====!!!!!!!!!!!!!!!!!!!!!!!!!!!!!!----------!!!!!!!!!!=====&++++++++++***...   ",
"...&&&$$$$$$$$$$++++=====!!!!!!!!!!!!!!!!!!!!!!!!!!!!!!!!!!!!!!!!!!!!!=====&&&$$$+++++++++++++...   ",
"...&&&$$$$$$$$$$++++=====!!!!!!!!!!!!!!!!!!!!!!!!!!!!!!!!!!!!!!!!!!!!!=====&&&$$$+++++++++++++...   ",
"...&&&$$$$$$$$$$++++=====!!!!!!!!!!!!!!!!!!!!!!!!!!!!!!!!!!!!!!!!!!!!!=====&&&$$$+++++++++++++...   ",
"...$$$$$$$$$$$$$$$$+=====!!!!!!!!!!!!!!!!!!!!!!!!!!!!!!!!!!!!!!!!!!!!!=====&&&$$$$$$$$$++++++++++...",
"...$$$$$$$$$$$$$$$$+=====!!!!!!!!!!!!!!!!!!!!!!!!!!!!!!!!!!!!!!!!!!!!!=====&&&$$$$$$$$$++++++++++...",
"...$$$$$$$$$$$$$$$$++++++=====!!!!!!!!!!!!!!!!!!!!!!!!!!!!!!!!!!!!!!!!=====&&&$$$$$$$$$++++++++++...",
"...$$$$$$$$$$$$$+++>>>>>>=====!!!!!!!!!!!!!!!!!!!!!!!!!!!!!!!!!!!!!!!!=====***%%%$$$$$$++++>>>>>>...",
"...$$$$$$$$$$$$$+++>>>>>>=====!!!!!!!!!!!!!!!!!!!!!!!!!!!!!!!!!!!!!!!!=====***%%%$$$$$$++++>>>>>>...",
"...$$$$$$$$$$$$$+++>>>>>>=====!!!!!!!!!!!!!!!!!!!!!!!!!!!!!!!!!!!!!!!!=====***%%%$$$$$$++++>>>>>>...",
"...%%%$$$$$$++++>>>>>>>>>=====!!!!!!!!!!!!!!!!!!!!!!!!!!!!!!!!!!!!!!!!=====***%%%$$$+++>>>>>>>>>>...",
"...%%%$$$$$$++++>>>>>>>>>=====~~~~~=====!!!!!==========~~~~~=====!!!!!=====***%%%$$$+++>>>>>>>>>>...",
"...%%%$$$$$$++++>>>>>>>>>=====~~~~~=====!!!!!==========~~~~~=====!!!!!=====***%%%$$$+++>>>>>>>>>>...",
"   ...$$$$$$++++>>>>>>>>>=====~~~~~=====!!!!!==========~~~~~=====!!!!!=====&&&&&&%%%>>>>>>>>>>>>>...",
"   ...$$$$$$++++>>>>>>>>>=====~~~~~=====!!!!!==========~~~~~=====!!!!!=====&&&&&&%%%>>>>>>>>>>>>>...",
"   ...$$$$$$++++>>>>>>>>>=====~~~~~=====!!!!!==========~~~~~=====!!!!!=====&&&&&&%%%>>>>>>>>>>>>>...",
"   ...$$$$$$++++>>>>>>>>>=====~~~~~=====!!!!!==========~~~~~=====!!!!!=====&&&&&&%%%>>>>>>>>>>>>>...",
"   ...%%%+++>>>>>>>>>>&&&=====~~~~~=====!!!!!==========~~~~~=====!!!!!=====...&&&&&&***>>>>>>>***...",
"   ...%%%+++>>>>>>>>>>&&&=====~~~~~=====!!!!!==========~~~~~=====!!!!!=====...&&&&&&***>>>>>>>***...",
"   ...%%%+++>>>>>>>>>>&&&=====~~~~~=====!!!!!==========~~~~~=====!!!!!=====...&&&&&&***>>>>>>>***...",
"      ...%%%>>>>>>>&&&...=====~~~~~=====!!!!!==========~~~~~=====!!!!!=====   ......&&&*******...   ",
"      ...%%%>>>>>>>&&&........=====  ...=====&&...%%%++=====>>>>>=====.....   ......&&&*******...   ",
"      ...%%%>>>>>>>&&&........=====  ...=====&&...%%%++=====>>>>>=====.....   ......&&&*******...   ",
"         .............        =====     =====..   .....=====.....=====              ..........      ",
"         .............        =====     =====..   .....=====.....=====              ..........      ",
"         .............        =====     =====..   .....=====.....=====              ..........      "};
